<svg width="24" height="24" viewBox="0 0 24 24" fill="none" xmlns="http://www.w3.org/2000/svg">
<path d="M14.001 3.5V11V4.5C14.001 3.67157 14.6726 3 15.501 3C16.3294 3 17.001 3.67157 17.001 4.5V11V7.5C17.001 6.67157 17.6726 6 18.501 6C19.3294 6 20.001 6.67157 20.001 7.5V16C20.001 19.3137 17.3147 22 14.001 22H12.8737C11.3493 22 9.8821 21.4198 8.77002 20.3772L3.81143 15.7285C3.09463 15.0565 3.07638 13.9246 3.77114 13.2298C4.45037 12.5506 5.55161 12.5506 6.23083 13.2298L8.00099 15V6.5C8.00099 5.67157 8.67255 5 9.50098 5C10.3294 5 11.001 5.67157 11.001 6.5V11V3.5C11.001 2.67157 11.6726 2 12.501 2C13.3294 2 14.001 2.67157 14.001 3.5Z" stroke="white" stroke-linecap="round" stroke-linejoin="round"/>
</svg>
