<svg width="1000" height="1000" viewBox="0 0 1000 1000" fill="none" xmlns="http://www.w3.org/2000/svg">
<rect width="1000" height="1000" fill="white"/>
<path d="M803.5 254.347V111.347L260 147.846C260 147.846 309.769 179.456 343 197.346C402.197 229.214 500.5 266.847 500.5 266.847C542.74 272.115 566.944 267.831 609.5 266.847C685.399 265.093 803.5 254.347 803.5 254.347Z" fill="url(#paint0_radial_825_181)"/>
<path d="M343 215.847C401.916 242.47 436.345 258.847 500.5 266.847C500.5 266.847 402.197 229.214 343 197.346C309.769 179.456 260 147.846 260 147.846L803.5 111.347C803.5 111.347 764.5 94.8489 742.5 91.8474C720.5 88.8459 613.46 94.4867 528 98.3474C474.5 100.764 199 124.347 199 124.347C199 124.347 234.795 155.225 260 171.847C290.626 192.045 309.568 200.741 343 215.847Z" fill="url(#paint1_radial_825_181)"/>
<path fill-rule="evenodd" clip-rule="evenodd" d="M312 231.346C269.537 210.863 207.121 172.043 206.015 171.355C110.468 248.372 50 362.268 50 489.346C50 602.061 97.5725 704.406 175 779.844C174.954 779.131 160.51 554.266 167 503.846C167.367 500.995 167.713 498.179 168.056 495.394C173.362 452.26 177.776 416.373 244 368.846C276.216 345.725 299.889 336.193 339.5 334.346C373.624 332.755 390.132 343.543 405.333 353.478C418.197 361.885 430.125 369.681 451 368.846C502.822 366.773 546.149 361.746 583.75 357.383C618.708 353.327 648.716 349.846 676 349.846C708 349.846 772.213 374.846 778 389.846C783.787 404.846 781.14 422.69 778 443.346C771.412 486.686 758.29 512.642 727 543.346C684.805 584.75 661.286 587.214 604.695 593.142C602.513 593.371 600.283 593.605 598 593.846C544.344 599.517 460.5 607.346 460.5 607.346C460.5 607.346 456.868 718.007 444.5 779.846C432 842.346 369.5 891.346 369.5 891.346C369.5 891.346 368.858 891.191 367.688 890.897C409.522 902.891 453.953 909.346 500 909.346C748.528 909.346 950 721.305 950 489.346C950 379.324 904.674 279.183 830.5 204.302V278.473C830.5 280.977 828.696 283.086 826.213 283.405C800.614 286.694 666.044 303.223 576.5 299.346C570.673 299.093 565.277 298.89 560.166 298.697C535.409 297.763 517.353 297.081 489.5 292.346C453.825 286.28 434.246 280.037 400 268.346C364.719 256.301 345.578 247.543 312 231.346Z" fill="url(#paint2_radial_825_181)"/>
<path d="M197 528.346L205 831.346L264.5 888.846V528.346C270 489.346 279.195 477.281 301 452.846C339.817 409.346 417 401.846 417 401.846C417 401.846 383.638 364.346 342 364.346C322.5 364.346 262.279 387.204 234 422.346C206.512 456.504 202.5 486.846 197 528.346Z" fill="url(#paint3_radial_825_181)"/>
<path d="M576.5 388.846C452 410.846 417 401.846 417 401.846C417 401.846 428.566 424.878 441.5 433.846C458.652 445.738 494 443.846 494 443.846C494 443.846 568.426 431.704 616.5 427.346C647.869 424.502 660.967 420.891 692 415.5C712.623 411.918 749 409.346 749 409.346C742.943 402.742 738.019 400.374 730.5 395.5C723.846 391.187 721.308 391.923 714 388.846C695 380.846 679.155 381.72 656.5 380.846C625.126 379.635 607.419 383.382 576.5 388.846Z" fill="url(#paint4_radial_825_181)"/>
<path d="M753.5 427.346C753.5 420.1 753.898 414.685 749 409.346C749 409.346 712.623 411.918 692 415.5C660.967 420.891 647.869 424.502 616.5 427.346C568.426 431.704 494 443.846 494 443.846C494 443.846 458.652 445.738 441.5 433.846C428.566 424.878 417 401.846 417 401.846C417 401.846 339.817 409.346 301 452.846C279.195 477.281 270 489.346 264.5 528.346V888.846C264.5 888.846 333.576 870.362 366 840.846C383.5 824.915 408.668 800.61 416.5 766.346C424.5 731.346 424.5 591.346 424.5 591.346C424.5 591.346 635 571.346 678 543.346C722.09 514.636 753.5 451.846 753.5 427.346Z" fill="url(#paint5_radial_825_181)"/>
<path d="M576.5 388.846C452 410.846 417 401.846 417 401.846C417 401.846 428.566 424.878 441.5 433.846C458.652 445.738 494 443.846 494 443.846C494 443.846 568.426 431.704 616.5 427.346C647.869 424.502 660.967 420.891 692 415.5C712.623 411.918 749 409.346 749 409.346C742.943 402.743 738.019 400.374 730.5 395.5C723.846 391.187 721.308 391.923 714 388.846C695 380.846 679.155 381.72 656.5 380.846C625.126 379.635 607.419 383.382 576.5 388.846Z" fill="url(#paint6_radial_825_181)"/>
<path d="M197 528.346L205 831.346L264.5 888.846V528.346C270 489.346 279.195 477.281 301 452.846C339.817 409.346 417 401.846 417 401.846C417 401.846 383.638 364.346 342 364.346C322.5 364.346 262.279 387.204 234 422.346C206.512 456.504 202.5 486.846 197 528.346Z" fill="url(#paint7_radial_825_181)"/>
<defs>
<radialGradient id="paint0_radial_825_181" cx="0" cy="0" r="1" gradientUnits="userSpaceOnUse" gradientTransform="translate(531.75 190.385) rotate(89.9145) scale(167.615 233.707)">
<stop offset="0.317708" stop-color="#E4A335"/>
<stop offset="1" stop-color="#D3603D"/>
</radialGradient>
<radialGradient id="paint1_radial_825_181" cx="0" cy="0" r="1" gradientUnits="userSpaceOnUse" gradientTransform="translate(455.5 123) rotate(103.849) scale(148.311 241.414)">
<stop offset="0.317708" stop-color="#E4A335"/>
<stop offset="1" stop-color="#D3603D"/>
</radialGradient>
<radialGradient id="paint2_radial_825_181" cx="0" cy="0" r="1" gradientUnits="userSpaceOnUse" gradientTransform="translate(500 540.35) rotate(90) scale(368.995 450)">
<stop offset="0.317708" stop-color="#E4A335"/>
<stop offset="1" stop-color="#D3603D"/>
</radialGradient>
<radialGradient id="paint3_radial_825_181" cx="0" cy="0" r="1" gradientUnits="userSpaceOnUse" gradientTransform="translate(475.254 626.596) rotate(90) scale(262.25 278.254)">
<stop offset="0.317708" stop-color="#E4A335"/>
<stop offset="1" stop-color="#D3603D"/>
</radialGradient>
<radialGradient id="paint4_radial_825_181" cx="0" cy="0" r="1" gradientUnits="userSpaceOnUse" gradientTransform="translate(475.254 626.596) rotate(90) scale(262.25 278.254)">
<stop offset="0.317708" stop-color="#E4A335"/>
<stop offset="1" stop-color="#D3603D"/>
</radialGradient>
<radialGradient id="paint5_radial_825_181" cx="0" cy="0" r="1" gradientUnits="userSpaceOnUse" gradientTransform="translate(475.254 626.596) rotate(90) scale(262.25 278.254)">
<stop offset="0.317708" stop-color="#E4A335"/>
<stop offset="1" stop-color="#D3603D"/>
</radialGradient>
<radialGradient id="paint6_radial_825_181" cx="0" cy="0" r="1" gradientUnits="userSpaceOnUse" gradientTransform="translate(754 412) rotate(-180) scale(337 1790.43)">
<stop offset="0.317708" stop-color="#E4A335"/>
<stop offset="1" stop-color="#D3603D"/>
</radialGradient>
<radialGradient id="paint7_radial_825_181" cx="0" cy="0" r="1" gradientUnits="userSpaceOnUse" gradientTransform="translate(268 627) rotate(90) scale(262 83.9486)">
<stop stop-color="#E4A335"/>
<stop offset="1" stop-color="#D3603D"/>
</radialGradient>
</defs>
</svg>
